<mxfile host="app.diagrams.net" agent="Mozilla/5.0 (Windows NT 10.0; Win64; x64) AppleWebKit/537.36 (KHTML, like Gecko) Chrome/129.0.0.0 Safari/537.36" version="24.7.14">
  <diagram name="Page-1" id="ccO6GV3V2dmuyI72sfLU">
    <mxGraphModel dx="1050" dy="541" grid="1" gridSize="10" guides="1" tooltips="1" connect="1" arrows="1" fold="1" page="1" pageScale="1" pageWidth="850" pageHeight="1100" math="0" shadow="0">
      <root>
        <mxCell id="0" />
        <mxCell id="1" parent="0" />
        <mxCell id="bFtf-n-XHWzg9lgVpLjl-21" style="edgeStyle=orthogonalEdgeStyle;rounded=0;orthogonalLoop=1;jettySize=auto;html=1;entryX=0.5;entryY=0;entryDx=0;entryDy=0;" edge="1" parent="1" source="bFtf-n-XHWzg9lgVpLjl-1" target="bFtf-n-XHWzg9lgVpLjl-4">
          <mxGeometry relative="1" as="geometry" />
        </mxCell>
        <mxCell id="bFtf-n-XHWzg9lgVpLjl-1" value="Header" style="rounded=1;whiteSpace=wrap;html=1;" vertex="1" parent="1">
          <mxGeometry x="80" y="20" width="120" height="60" as="geometry" />
        </mxCell>
        <mxCell id="bFtf-n-XHWzg9lgVpLjl-18" style="edgeStyle=orthogonalEdgeStyle;rounded=0;orthogonalLoop=1;jettySize=auto;html=1;entryX=0;entryY=0.5;entryDx=0;entryDy=0;" edge="1" parent="1" source="bFtf-n-XHWzg9lgVpLjl-2" target="bFtf-n-XHWzg9lgVpLjl-5">
          <mxGeometry relative="1" as="geometry">
            <mxPoint x="280" y="290" as="targetPoint" />
            <Array as="points">
              <mxPoint x="280" y="50" />
              <mxPoint x="280" y="275" />
            </Array>
          </mxGeometry>
        </mxCell>
        <mxCell id="bFtf-n-XHWzg9lgVpLjl-2" value="Main" style="rounded=1;whiteSpace=wrap;html=1;" vertex="1" parent="1">
          <mxGeometry x="340" y="20" width="120" height="60" as="geometry" />
        </mxCell>
        <mxCell id="bFtf-n-XHWzg9lgVpLjl-19" style="edgeStyle=orthogonalEdgeStyle;rounded=0;orthogonalLoop=1;jettySize=auto;html=1;entryX=0;entryY=0.5;entryDx=0;entryDy=0;" edge="1" parent="1" source="bFtf-n-XHWzg9lgVpLjl-3" target="bFtf-n-XHWzg9lgVpLjl-6">
          <mxGeometry relative="1" as="geometry">
            <Array as="points">
              <mxPoint x="610" y="50" />
              <mxPoint x="610" y="250" />
            </Array>
          </mxGeometry>
        </mxCell>
        <mxCell id="bFtf-n-XHWzg9lgVpLjl-20" style="edgeStyle=orthogonalEdgeStyle;rounded=0;orthogonalLoop=1;jettySize=auto;html=1;entryX=0;entryY=0.5;entryDx=0;entryDy=0;" edge="1" parent="1" source="bFtf-n-XHWzg9lgVpLjl-3" target="bFtf-n-XHWzg9lgVpLjl-9">
          <mxGeometry relative="1" as="geometry">
            <Array as="points">
              <mxPoint x="620" y="50" />
              <mxPoint x="620" y="145" />
            </Array>
          </mxGeometry>
        </mxCell>
        <mxCell id="bFtf-n-XHWzg9lgVpLjl-3" value="Footer" style="rounded=1;whiteSpace=wrap;html=1;" vertex="1" parent="1">
          <mxGeometry x="630" y="20" width="120" height="60" as="geometry" />
        </mxCell>
        <mxCell id="bFtf-n-XHWzg9lgVpLjl-4" value="Brand Name" style="shape=parallelogram;perimeter=parallelogramPerimeter;whiteSpace=wrap;html=1;fixedSize=1;" vertex="1" parent="1">
          <mxGeometry x="40" y="120" width="200" height="60" as="geometry" />
        </mxCell>
        <mxCell id="bFtf-n-XHWzg9lgVpLjl-6" value="Order component is&lt;div&gt;Extraction of JSX&amp;nbsp;&lt;/div&gt;" style="shape=parallelogram;perimeter=parallelogramPerimeter;whiteSpace=wrap;html=1;fixedSize=1;" vertex="1" parent="1">
          <mxGeometry x="640" y="220" width="200" height="60" as="geometry" />
        </mxCell>
        <mxCell id="bFtf-n-XHWzg9lgVpLjl-9" value="Ternary Operator to have open and closeHour.&lt;div&gt;&lt;br&gt;&lt;/div&gt;" style="rounded=0;whiteSpace=wrap;html=1;" vertex="1" parent="1">
          <mxGeometry x="660" y="90" width="180" height="110" as="geometry" />
        </mxCell>
        <mxCell id="bFtf-n-XHWzg9lgVpLjl-10" value="Inside the main component there is reference to each pizza component.&lt;div&gt;&lt;br&gt;&lt;/div&gt;&lt;div&gt;&lt;br&gt;&lt;/div&gt;" style="rounded=0;whiteSpace=wrap;html=1;" vertex="1" parent="1">
          <mxGeometry x="350" y="90" width="210" height="110" as="geometry" />
        </mxCell>
        <mxCell id="bFtf-n-XHWzg9lgVpLjl-13" value="" style="curved=1;endArrow=classic;html=1;rounded=0;" edge="1" parent="1" source="bFtf-n-XHWzg9lgVpLjl-5">
          <mxGeometry width="50" height="50" relative="1" as="geometry">
            <mxPoint x="400" y="310" as="sourcePoint" />
            <mxPoint x="450" y="260" as="targetPoint" />
            <Array as="points">
              <mxPoint x="400" y="260" />
            </Array>
          </mxGeometry>
        </mxCell>
        <mxCell id="bFtf-n-XHWzg9lgVpLjl-14" value="" style="curved=1;endArrow=classic;html=1;rounded=0;entryX=-0.011;entryY=0.627;entryDx=0;entryDy=0;entryPerimeter=0;exitX=0;exitY=0.5;exitDx=0;exitDy=0;" edge="1" parent="1" source="bFtf-n-XHWzg9lgVpLjl-2" target="bFtf-n-XHWzg9lgVpLjl-10">
          <mxGeometry width="50" height="50" relative="1" as="geometry">
            <mxPoint x="300" y="170" as="sourcePoint" />
            <mxPoint x="350" y="140" as="targetPoint" />
            <Array as="points">
              <mxPoint x="280" y="120" />
              <mxPoint x="350" y="170" />
            </Array>
          </mxGeometry>
        </mxCell>
        <mxCell id="bFtf-n-XHWzg9lgVpLjl-5" value="Pizza Component&lt;div&gt;Each pizza contains props to use the name, pic, ingredients, price and so on&lt;/div&gt;" style="shape=parallelogram;perimeter=parallelogramPerimeter;whiteSpace=wrap;html=1;fixedSize=1;" vertex="1" parent="1">
          <mxGeometry x="320" y="220" width="280" height="110" as="geometry" />
        </mxCell>
      </root>
    </mxGraphModel>
  </diagram>
</mxfile>
